<svg xmlns="http://www.w3.org/2000/svg" viewBox="0 0 20 20" width="20" height="20">
	<path class="shp0" d="M0.01 14.01L2.01 14.01L2.01 20.01L0.01 20.01L0.01 14.01ZM0.01 18.01L6.01 18.01L6.01 20.01L0.01 20.01L0.01 18.01ZM5.99 0.01L5.99 2.01L-0.01 2.01L-0.01 0.01L5.99 0.01ZM1.99 0.01L1.99 6.01L-0.01 6.01L-0.01 0.01L1.99 0.01ZM19.99 5.99L17.99 5.99L17.99 -0.01L19.99 -0.01L19.99 5.99ZM19.99 1.99L13.99 1.99L13.99 -0.01L19.99 -0.01L19.99 1.99ZM14.01 19.99L14.01 17.99L20.01 17.99L20.01 19.99L14.01 19.99ZM18.01 19.99L18.01 13.99L20.01 13.99L20.01 19.99L18.01 19.99Z" />
</svg>